<?xml version="1.0" encoding="UTF-8" standalone="no"?>
<svg
   xmlns:dc="http://purl.org/dc/elements/1.1/"
   xmlns:cc="http://creativecommons.org/ns#"
   xmlns:rdf="http://www.w3.org/1999/02/22-rdf-syntax-ns#"
   xmlns:svg="http://www.w3.org/2000/svg"
   xmlns="http://www.w3.org/2000/svg"
   id="svg8"
   version="1.1"
   viewBox="0 0 1000 1000"
   height="1000"
   width="1000">
  <defs
     id="defs2" />
  <metadata
     id="metadata5">
    <rdf:RDF>
      <cc:Work
         rdf:about="">
        <dc:format>image/svg+xml</dc:format>
        <dc:type
           rdf:resource="http://purl.org/dc/dcmitype/StillImage" />
        <dc:title></dc:title>
      </cc:Work>
    </rdf:RDF>
  </metadata>
  <g
     transform="translate(0,-122.51965)"
     id="layer1">
    <path
       id="path36"
       d="m 385.0182,560.37607 c 10.29476,-4.59723 30.55012,-16.10596 51.72529,-22.32025 21.17517,-6.21428 43.27356,-7.13504 67.22494,-8.77296 23.95139,-1.63792 49.7604,-3.99326 67.33388,-8.51224 17.5735,-4.51895 26.91291,-11.20078 27.9637,-13.02326 1.05079,-1.82245 -6.18321,1.21246 -15.81996,3.44705 -9.63674,2.23458 -21.6535,3.66332 -36.83102,1.65429 -15.17752,-2.00901 -33.49956,-7.45561 -43.74068,-19.48658 -10.24111,-12.03098 -12.39595,-30.6419 -11.02532,-35.51713 1.37061,-4.87524 6.26691,3.98551 17.31222,10.93535 11.0453,6.94985 28.2386,11.98816 43.5498,12.01702 15.31122,0.0289 28.741,-4.95147 31.34031,-6.72409 2.59929,-1.77263 -5.62985,-0.33835 -16.11048,-1.04512 -10.48062,-0.70677 -23.2044,-3.55432 -33.0208,-8.93397 -9.81638,-5.37965 -16.71841,-13.28844 -20.77908,-23.37495 -4.06068,-10.08651 -5.27894,-22.34816 -1.51531,-33.15009 3.76363,-10.80192 12.50788,-20.14375 14.97118,-20.78385 2.46331,-0.64007 -1.35433,7.42283 0.75894,17.85 2.11326,10.42716 10.15662,23.21294 21.52238,29.05253 11.36575,5.83957 26.05034,4.73061 37.97757,0.97995 11.92723,-3.75064 21.09671,-10.14207 20.73662,-12.00764 -0.36013,-1.86558 -10.25013,0.79421 -20.09743,0.65847 -9.8473,-0.13573 -19.64419,-3.0669 -26.5077,-10.84803 -6.8635,-7.78113 -10.78756,-20.4069 -10.14864,-30.16868 0.63891,-9.7618 5.83997,-16.65744 7.9076,-16.28331 2.06762,0.37412 1.00237,8.01988 4.30857,14.8469 3.30622,6.82702 10.98255,12.83374 19.1128,14.996 8.13024,2.16226 16.70797,0.4791 25.6005,-4.27563 8.89252,-4.75472 18.10043,-12.58144 23.89356,-23.88698 5.79312,-11.30554 8.17421,-26.09472 19.57427,-38.25653 11.40007,-12.16181 31.81819,-21.69911 49.50177,-23.97245 17.68358,-2.27334 32.63337,2.71631 38.49684,3.83011 5.86349,1.11383 2.64076,-1.6485 -3.85278,-5.6313 -6.49352,-3.98278 -16.25723,-9.18575 -32.54434,-9.86499 -16.28708,-0.67925 -39.09231,3.16577 -57.27085,12.04742 -18.17856,8.88166 -31.72178,22.7966 -38.91447,28.77049 -7.19271,5.97387 -8.02955,4.00262 -4.03272,-4.06229 3.99682,-8.06492 12.82822,-22.22564 25.33691,-34.19442 12.50871,-11.9688 28.69512,-21.74783 43.77735,-28.14138 15.08219,-6.39355 29.06023,-9.40216 45.20019,-9.76934 16.13996,-0.36718 34.44223,1.90663 48.08943,7.55402 13.64717,5.64739 22.64033,14.66848 26.25559,16.56538 3.61528,1.8969 1.85285,-3.32974 -4.76853,-10.30436 -6.62139,-6.9746 -18.10179,-15.69778 -35.58357,-19.13669 -17.48179,-3.43891 -40.96216,-1.59289 -48.88146,-3.52782 -7.91932,-1.93492 -0.27491,-7.64948 11.2107,-12.32003 11.48561,-4.67056 26.812,-8.2975 42.04283,-9.28539 15.23083,-0.98787 30.36652,0.66284 45.36889,6.20073 15.00236,5.5379 29.87414,14.9641 39.54118,25.09137 9.66704,10.12726 14.13091,20.95702 18.2046,27.52325 4.07369,6.56622 7.75636,8.86788 6.03586,2.16283 -1.7205,-6.70505 -8.84499,-22.419 -19.05846,-33.4554 -10.21346,-11.03642 -23.51721,-17.39746 -23.00064,-20.37353 0.51654,-2.97604 14.85266,-2.56676 27.2586,0.45354 12.40591,3.02031 22.88223,8.6514 33.06308,17.64198 10.18086,8.99058 20.06679,21.34102 27.08129,32.34976 7.01452,11.00874 11.15761,20.67593 16.68213,29.1929 5.52452,8.51697 12.42932,15.88211 17.4276,20.03712 4.9983,4.15503 8.08879,5.09918 12.76666,4.87943 4.67786,-0.21975 10.94566,-1.60355 16.03142,-3.2718 5.08576,-1.66826 8.99286,-3.62181 10.25392,-1.46681 1.26104,2.15497 -0.12288,8.42359 -4.35497,14.73133 -4.23203,6.30774 -11.31036,12.65383 -16.07124,16.84506 -4.76089,4.19123 -7.20181,6.22534 -7.89396,13.26796 -0.69215,7.04261 0.36519,19.08005 0.81283,29.21204 0.44764,10.13201 0.2849,18.35051 -0.61013,24.69832 -0.89504,6.34779 -2.52237,10.82294 -4.35365,15.17744 -1.83128,4.35448 -3.86507,8.58476 -4.27218,16.6029 -0.40709,8.01813 0.81315,19.81388 1.50493,30.14939 0.69178,10.3355 0.85452,19.20497 1.30211,26.8551 0.4476,7.65014 1.1799,14.0782 -1.01714,20.30408 -2.19703,6.2259 -7.32304,12.24692 -12.12472,16.27574 -4.80169,4.02881 -9.27654,6.06283 -14.52656,7.40595 -5.25003,1.34315 -11.27006,1.99395 -15.42147,-0.65179 -4.15139,-2.64576 -6.42948,-8.58508 -8.46382,-16.64118 -2.03433,-8.05613 -3.82488,-18.22965 -8.66657,-30.63897 -4.8417,-12.4093 -12.73624,-27.05895 -18.02581,-36.4581 -5.28957,-9.39916 -7.97516,-13.54962 -11.84011,-16.80441 -3.86494,-3.25479 -8.91082,-5.61496 -12.08504,-10.66151 -3.1742,-5.04655 -4.47613,-12.7767 -5.57412,-15.99148 -1.09796,-3.21477 -1.99325,-1.91254 -4.19233,0.77525 -2.19907,2.68781 -5.69452,6.75229 -10.04936,14.03735 -4.35483,7.28506 -9.56138,17.77951 -12.49139,28.6445 -2.93005,10.865 -3.58098,22.0937 -0.77317,32.75544 2.80778,10.66172 9.07323,20.75152 12.93883,34.66726 3.86558,13.91571 5.33036,31.65573 1.83151,44.10695 -3.49885,12.45123 -11.96173,19.61213 -16.07206,24.94271 -4.11034,5.3306 -3.86624,8.82934 -0.0809,13.75445 3.78542,4.9251 11.10712,11.27056 20.3437,17.8216 9.23656,6.55102 20.38565,13.30558 29.09327,17.82211 8.70763,4.5165 14.974,6.79519 18.4728,9.1952 3.49878,2.4 4.23128,4.92304 5.3709,13.87708 1.13962,8.95402 2.68532,24.32967 3.82467,37.51345 1.13935,13.18379 1.87171,24.16915 3.78421,33.93532 1.91247,9.76618 5.00453,18.31006 7.12046,24.90185 2.11592,6.5918 3.25512,11.23002 1.62789,15.62472 -1.62724,4.39472 -6.0209,8.54425 -8.99176,12.49153 -2.9709,3.94728 -4.51665,7.68962 -5.57492,11.55598 -1.05825,3.86636 -1.62766,7.85233 -3.98779,11.43373 -2.36013,3.58141 -6.50901,6.75407 -10.37522,10.376 -3.86621,3.62191 -7.4457,7.68949 -10.74224,12.7359 -3.29654,5.0464 -6.3066,11.06648 -8.82928,14.89169 -2.52268,3.82522 -4.55667,5.45238 -9.23906,3.21301 -4.68237,-2.23939 -12.00155,-8.33869 -17.16934,-15.25635 -5.16779,-6.91767 -8.17875,-14.64854 -8.0563,-21.56592 0.12249,-6.91735 3.37791,-13.02133 7.12114,-17.49656 3.74324,-4.47524 7.97599,-7.3242 11.51551,-9.60248 3.53951,-2.27829 6.38875,-3.98782 8.01556,-6.55062 1.62684,-2.56279 2.03394,-5.98248 1.54574,-9.52139 -0.48821,-3.53891 -1.87222,-7.20244 -1.70905,-10.41703 0.1632,-3.21462 1.87246,-5.98202 2.92987,-10.94416 1.05742,-4.96216 1.46452,-12.12729 -0.0815,-21.48457 -1.54605,-9.35727 -5.04599,-20.91522 -9.07405,-29.82571 -4.02807,-8.9105 -8.5856,-15.17712 -11.92881,-19.84208 -3.3432,-4.66494 -5.47254,-7.72884 -7.57206,-8.51311 -2.09953,-0.78426 -4.17127,0.71199 -10.15926,1.57573 -5.98799,0.86373 -15.87875,1.09375 -26.75539,0.28811 -10.87662,-0.80564 -22.72909,-2.6468 -33.83537,-3.56757 -11.10626,-0.92077 -21.46323,-0.92077 -29.23179,0.34498 -7.76861,1.26574 -12.94689,3.79735 -24.22797,8.28679 -11.28108,4.48942 -28.65422,10.93245 -49.41404,16.99349 -20.75981,6.06105 -44.89703,11.73705 -64.45415,14.24997 -19.55712,2.51292 -34.52994,1.86193 -43.97022,1.04817 -9.44028,-0.81375 -13.34616,-1.79021 -15.95066,-0.0816 -2.6045,1.7086 -3.90627,6.10208 -5.69702,12.69527 -1.79076,6.5932 -4.0686,15.37915 -9.11419,21.15778 -5.04559,5.77861 -12.85668,8.54502 -20.01866,11.63763 -7.16199,3.09262 -13.67104,6.50988 -16.92697,8.21924 -3.2559,1.70934 -27.18133,25.63477 -31.16881,26.28577 -3.98749,0.65102 -11.9614,1.9529 -21.72786,4.39447 -9.76648,2.44157 -21.32025,6.02161 -31.1059,9.98747 -9.78566,3.96584 -17.79905,8.3161 -22.84287,16.93728 -5.04383,8.62119 -7.11501,21.50858 -6.19433,36.24091 0.92069,14.73236 4.83324,31.30311 9.2067,43.15761 4.37347,11.85451 9.20688,18.98944 14.61632,24.62914 5.40943,5.6395 11.39375,9.7825 16.21343,16.6102 4.81967,6.8278 8.47533,16.3418 9.36777,22.4411 0.89244,6.0993 -0.97914,8.78462 -7.81796,10.41302 -6.83881,1.6284 -18.63251,2.1977 -26.6081,1.9538 -7.97558,-0.2441 -12.12545,-1.3019 -13.63114,-4.59922 -1.50568,-3.2973 -0.3666,-8.8299 0.97613,-13.3867 1.34272,-4.5568 2.88933,-8.1384 2.11687,-10.5379 -0.77244,-2.3996 -3.86615,-3.6207 -8.38352,-6.3475 -4.51737,-2.7267 -10.4568,-6.9574 -15.33969,-10.8231 -4.8829,-3.8657 -8.70757,-7.3648 -9.1547,-11.4345 -0.44714,-4.06975 2.48247,-8.70827 3.49933,-15.54251 1.01686,-6.83425 0.12137,-15.87016 -0.81437,-27.87267 -0.93577,-12.0025 -1.91245,-26.9781 -3.74346,-37.59754 -1.83103,-10.61943 -4.51674,-16.8861 -6.55114,-22.01285 -2.03441,-5.12676 -3.41798,-9.11472 -3.66199,-14.89225 -0.24402,-5.77754 0.65131,-13.34719 3.86596,-18.4735 3.21463,-5.1263 8.74941,-7.8123 14.7705,-9.4395 6.02108,-1.6272 12.53318,-2.197 19.28699,-3.74316 6.7538,-1.54614 13.75385,-4.06942 19.73458,-7.52787 5.98074,-3.45845 10.94593,-7.85386 13.83419,-14.32244 2.88825,-6.4686 3.70225,-15.01567 2.84782,-20.99619 -0.85442,-5.98051 -3.37758,-9.39898 -5.53347,-9.84725 -2.1559,-0.44827 -3.94636,2.07464 -10.37821,7.2039 -6.43186,5.12929 -17.49316,12.85594 -27.82889,19.48875 -10.33573,6.63283 -19.93722,12.16589 -28.48264,17.94414 -8.54544,5.77824 -16.03116,11.79937 -22.94903,18.26953 -6.91789,6.47015 -13.2643,13.38612 -17.82169,17.00809 -4.5574,3.62197 -7.32377,3.94742 -8.91136,5.65655 -1.58758,1.7091 -1.99427,4.79997 -3.4186,8.3408 -1.42433,3.54085 -3.86459,7.52663 -6.55034,10.25346 -2.68574,2.72682 -5.61432,4.19112 -7.7715,5.98163 -2.15717,1.79055 -3.5399,3.9053 -6.30792,5.90012 -2.76803,1.99481 -6.91553,3.86524 -10.13067,6.5103 -3.21517,2.64506 -5.49296,6.06174 -9.99325,13.16955 -4.50028,7.10783 -11.21653,17.89646 -15.23803,24.81814 -4.02152,6.92167 -5.34483,9.97108 -6.46735,14.0292 -1.12254,4.05813 -2.04277,9.11947 -3.33751,13.34937 -1.29473,4.22989 -2.96302,7.62401 -2.96314,10.67496 -1e-4,3.05094 1.66795,5.75444 4.11375,9.49504 2.44583,3.7407 5.66787,8.5162 8.17103,12.9758 2.50317,4.4595 4.28691,8.6024 4.9489,11.9686 0.66196,3.366 0.20167,5.9551 1.09413,8.2582 0.89245,2.3031 3.13543,4.3159 5.49451,7.7106 2.3591,3.3948 4.83355,8.17112 5.78323,12.40022 0.94967,4.2292 0.37429,7.9116 -6.07247,9.5523 -6.44674,1.6406 -18.75637,1.2379 -28.59677,0.5762 -9.84039,-0.6617 -17.20525,-1.5823 -20.16899,-4.6621 -2.96372,-3.0798 -1.52533,-8.3155 -0.23065,-12.22802 1.29472,-3.9127 2.44591,-6.5029 2.07198,-9.5512 -0.37393,-3.0482 -2.27398,-6.5605 -4.7194,-10.9909 -2.44542,-4.4306 -5.43806,-9.7828 -5.14993,-15.5088 0.28811,-5.7258 3.8561,-11.8258 5.81222,-16.0838 1.95612,-4.25789 2.30147,-6.67527 0.74857,-10.72993 -1.55288,-4.05466 -5.00752,-9.75478 -5.81269,-14.41628 -0.80518,-4.66148 1.03633,-8.28697 3.88428,-11.45106 2.84795,-3.1641 6.70497,-5.86975 11.93996,-12.39927 5.23501,-6.52951 11.85498,-16.89121 17.37877,-26.52918 5.52379,-9.63796 9.95527,-18.55847 13.35048,-23.88088 3.39522,-5.3224 5.7549,-7.04903 7.25023,-10.29899 1.49533,-3.24997 2.1287,-8.02894 3.19321,-12.51678 1.06451,-4.48785 2.56108,-8.68977 5.7256,-11.79635 3.16452,-3.10654 7.99994,-5.1213 12.08491,-7.59548 4.08499,-2.47419 7.42357,-5.40984 11.55268,-10.88055 4.12912,-5.47072 9.05415,-13.48349 14.28216,-20.98691 5.22802,-7.50341 10.76281,-14.50328 14.62785,-20.72831 3.86504,-6.22502 6.06272,-11.67849 7.12035,-18.75713 1.05761,-7.07864 0.97622,-15.7886 1.79001,-25.43135 0.81378,-9.64275 2.52298,-20.22352 6.8765,-33.48729 4.35354,-13.26376 11.35307,-29.2162 19.16523,-43.05001 7.81218,-13.83385 16.43916,-25.55353 23.68165,-34.4234 7.24247,-8.86989 13.10246,-14.89267 13.9168,-17.49638 0.81434,-2.60372 -3.41826,-1.78976 -9.19747,1.95434 -5.77923,3.74412 -13.10085,10.41495 -20.50725,20.58839 -7.40641,10.17345 -14.89196,23.84269 -20.67022,36.37567 -5.77827,12.53298 -9.84678,23.92481 -18.83967,35.15605 -8.99287,11.23124 -22.90505,22.29591 -41.90956,27.83094 -19.00453,5.53503 -43.08833,5.53501 -55.45935,4.92443 -12.371,-0.61062 -13.02201,-1.83124 -4.47637,-4.59807 8.54563,-2.76683 26.28632,-7.07994 40.81239,-13.99753 14.52609,-6.9176 25.83774,-16.43891 30.39506,-20.79243 4.55733,-4.35352 2.3607,-3.53993 -4.19212,0.48922 -6.55282,4.02917 -17.45307,11.26888 -31.77784,17.21069 -14.32475,5.94181 -32.06034,10.5791 -48.46065,12.69545 -16.40031,2.11636 -31.4533,1.70952 -36.53904,0.6105 -5.08573,-1.09902 -0.20363,-2.88913 5.16648,-4.51639 5.37009,-1.62726 11.23119,-3.09254 18.89997,-6.57103 7.66879,-3.47853 17.15183,-8.97298 24.78098,-14.77147 7.62916,-5.79846 13.40706,-11.90188 17.63867,-16.92711 4.23159,-5.02525 6.91667,-8.9715 4.06809,-6.65173 -2.84858,2.31976 -11.22801,10.90255 -21.09663,17.86181 -9.8686,6.95926 -21.21923,12.28875 -36.78296,17.11066 -15.56376,4.82191 -35.33704,9.1346 -53.323822,8.80932 -17.986783,-0.32527 -34.179688,-5.28892 -40.079162,-8.25958 -5.899475,-2.97065 -1.505355,-3.94713 5.166139,-4.43523 6.671494,-0.48812 15.626153,-0.48812 27.587932,-2.31907 11.96178,-1.83095 26.937633,-5.49352 40.812743,-11.67862 13.87511,-6.18513 26.6516,-14.89267 34.01607,-21.19982 7.36447,-6.30714 9.31724,-10.21269 4.88168,-7.68935 -4.43559,2.52336 -15.25604,11.47261 -28.31873,18.55368 -13.06272,7.08104 -28.36029,12.28873 -42.92808,14.9745 -14.56778,2.68577 -28.400592,2.8485 -42.317421,-0.48822 -13.916826,-3.33673 -27.91274,-10.17193 -33.120594,-13.50857 -5.207854,-3.33664 -1.627309,-3.17389 4.474674,-2.84844 6.101987,0.32545 14.731032,0.81387 26.28598,9e-5 11.554949,-0.81378 26.042389,-2.92992 38.086073,-6.18511 12.043686,-3.25519 21.647348,-7.65008 30.272798,-13.59044 8.62546,-5.94035 16.27629,-13.4284 23.11158,-20.67061 6.83529,-7.24219 12.85832,-14.24196 13.34725,-16.19512 0.4889,-1.95317 -4.55757,1.13982 -12.29018,7.81423 -7.73263,6.67438 -18.14611,16.92516 -28.31897,24.24983 -10.17285,7.32465 -20.099901,11.71859 -30.517307,14.72997 -10.417396,3.01137 -21.320529,4.63872 -29.865874,5.12711 -8.545345,0.48838 -14.729353,-0.16255 -15.868135,-1.70949 -1.138781,-1.54693 2.766717,-3.98787 9.844793,-6.91667 7.078077,-2.92879 17.335669,-6.34799 25.635581,-13.02082 8.29991,-6.67282 14.648406,-16.60252 21.076782,-28.23878 6.428366,-11.63625 12.93965,-24.98436 23.19289,-38.32962 10.25325,-13.34527 24.25202,-26.69294 38.49279,-35.88818 14.24078,-9.19526 28.72758,-14.24122 46.71109,-16.76371 17.98353,-2.52249 39.46982,-2.52249 56.31461,2.5e-4 16.84479,2.52272 29.05235,7.56853 42.64223,13.75313 13.58985,6.18461 28.56435,13.50911 41.01513,19.93794 12.45078,6.42884 22.37936,11.9628 27.50943,15.88604 5.13007,3.92323 5.46257,6.23742 15.75732,1.6402 z"
       style="fill:rgb(40, 40, 40);fill-opacity:1;stroke:none;stroke-width:1.24998188px;stroke-linecap:butt;stroke-linejoin:miter;stroke-opacity:1" />
  </g>
</svg>
